<svg id="Capa_1" enable-background="new 0 0 510 510" height="512" viewBox="0 0 510 510" width="512" xmlns="http://www.w3.org/2000/svg"><g><path d="m255 96c-70.028 0-127 56.972-127 127s56.972 127 127 127 127-56.972 127-127-56.972-127-127-127zm97 127c0 2.303-.086 4.586-.245 6.85-35.683-2.858-51.031-7.498-54.395-9.708-1.568-1.641-1.788-2.752-1.999-8.649-.551-15.394-3.526-31.884-32.644-49.354-9.016-5.41-9.953-10.254-10.261-11.846-1.165-6.021 2.07-14.627 8.875-23.609.124-.163.229-.299.343-.449 50.384 3.44 90.326 45.522 90.326 96.765zm-189.063 30.561c21.528-10.077 36.594-11.75 42.122-8.816.792.42 2.897 1.538 3.749 7.564.862 6.104-.165 10.922-1.465 17.021-2.688 12.614-4.064 24.396 2.493 39.49-21.958-11.601-38.952-31.38-46.899-55.259zm92.063 66.439c-.479 0-.955-.011-1.432-.018-21.261-23.811-19.523-32.018-16.884-44.398 1.529-7.177 3.433-16.108 1.829-27.468-2.469-17.49-11.904-25.896-19.384-29.868-17.39-9.234-41.243-3.55-61.128 4.702.022-43.081 28.277-79.678 67.226-92.27-2.699 7.799-3.945 16.407-2.224 25.308 1.727 8.931 7.341 21.711 24.28 31.874 17.591 10.555 17.792 16.184 18.098 24.703.267 7.445.669 18.697 11.013 29.041 3.938 3.938 12.927 12.922 68.52 17.775-14.422 35.512-49.288 60.619-89.914 60.619z"/><g><path d="m255 510c-30.529 0-65.856-24.346-90.116-44.77-27.675-23.299-53.906-52.6-66.826-74.646-19.5-33.277-43.559-86.034-62.787-137.682-16.09-43.218-35.271-102.92-35.271-141.902 0-5.481 2.99-10.526 7.797-13.157.443-.243 44.89-24.521 96.676-48.459 70.893-32.769 121.538-49.384 150.527-49.384s79.634 16.615 150.527 49.384c51.786 23.938 96.232 48.216 96.676 48.459 4.807 2.631 7.797 7.676 7.797 13.157 0 38.982-19.181 98.684-35.271 141.902-19.229 51.647-43.287 104.404-62.787 137.682-12.92 22.047-39.15 51.348-66.826 74.646-24.26 20.424-59.587 44.77-90.116 44.77zm-224.643-390.255c4.866 63.604 58.338 195.523 93.584 255.671 11.159 19.043 35.376 45.914 60.263 66.864 28.056 23.619 54.521 37.72 70.796 37.72s42.74-14.101 70.795-37.72c24.886-20.95 49.104-47.821 60.263-66.864 35.246-60.147 88.719-192.067 93.584-255.671-53.53-28.668-177.397-89.745-224.642-89.745s-171.112 61.077-224.643 89.745z"/></g></g></svg>